# ProBuilder 5.0.3
# https://unity3d.com/unity/features/worldbuilding/probuilder
# 4/25/2021 8:12:28 AM

mtllib ./Prism.mtl
o Prism

g Prism
v 0.5 0.2064178 -0.3310573
v -0.5 0.2064178 -0.3310573
v 0 0.8046799 -0.2063305
v -0.5 0.20642 0.3082631
v 0 0.8046845 0.005776227
v 0.5 0.20642 0.3082631
v 0.7451485 -0.3605938 -0.3734267
v -0.7451485 -0.3605938 -0.3734267
v 0.7451485 -0.3605921 0.3745766
v -0.7451485 -0.3605921 0.3745766
v 0.4046734 -0.7478619 -0.2082557
v 2.980232E-08 -0.3561201 -0.3797012
v 2.980232E-08 -0.3561189 -0.0693129
v 0.4046734 -0.8046846 -0.06931618
v -0.4391382 -0.7478619 -0.2082557
v -0.4391382 -0.7951827 -0.06931594
v -0.4391382 -0.7478576 0.0678736
v 2.980232E-08 -0.3561188 0.3796985
v 0.4046734 -0.7478576 0.0678736

vt -0.5 0.1345064
vt 0.5 0.1345064
vt 0 0.7456318
vt -0.3310559 -0.1622549
vt 0.3082644 -0.1622521
vt -0.2063305 0.617436
vt 0.005776227 0.6174398
vt -0.5 0.0451206
vt 0.5 0.0451206
vt 0 0.7155075
vt -0.3082644 -0.1622505
vt 0.3310559 -0.1622533
vt -0.005776227 0.6174415
vt 0.2063305 0.6174377
vt -0.5 0.1811748
vt 0.5 0.1811748
vt -0.7451485 -0.3874176
vt 0.7451485 -0.3874176
vt -0.3082638 -0.008954459
vt 0.3310566 -0.008956764
vt -0.3745776 -0.6266926
vt 0.3734256 -0.6266946
vt -0.3310566 -0.00895704
vt 0.3082638 -0.008954734
vt -0.3734256 -0.6266949
vt 0.3745776 -0.6266929
vt -0.5 0.1692145
vt 0.5 0.1692145
vt -0.7451485 -0.4016621
vt 0.7451485 -0.4016621
vt 0.2513362 -1.016154
vt 0.0798893 -0.4542174
vt 0.3902776 -0.4542158
vt 0.3902757 -1.058345
vt -4.297495E-05 -0.5710183
vt -0.5875667 -0.3995727
vt -0.6210247 -0.260633
vt -4.211068E-05 -0.26063
vt -0.6115944 -0.9316599
vt -0.5800908 -0.7944704
vt 0.008383274 -0.4826455
vt 0.0083832 -0.9316568
vt -0.08984852 -0.6516094
vt 0.4733742 -0.9634343
vt 0.5128992 -1.100624
vt -0.08984844 -1.100621
vt 0.7451484 -0.183622
vt -0.7451487 -0.1836223
vt -0.4391383 -0.6046402
vt -1.187048E-07 -0.1770326
vt 0.4046733 -0.6046401
vt -0.3753642 0.197697
vt 0.3726387 0.1982004
vt 0.2078278 -0.3173485
vt 0.06888831 -0.3611882
vt -0.06830139 -0.3175316
vt -0.372919 0.1605133
vt 0.3750841 0.160208
vt 0.06817272 -0.3331105
vt -0.06901678 -0.3708532
vt -0.2079565 -0.3330007
vt -0.7451486 -0.04968468
vt 0.7451485 -0.04968455
vt 0.4046734 -0.5436898
vt -2.267039E-08 -0.04299692
vt -0.4391382 -0.5436899

vn 0 0.2040936 -0.9789514
vn -0.7673067 0.6412802 -2.092558E-06
vn 0 0.4512123 0.8924167
vn 0.7673088 0.6412778 -2.09255E-06
vn 0 0.07451623 -0.9972199
vn 0.9178842 0.3968485 -1.313453E-06
vn -0.9178839 0.3968489 -1.313455E-06
vn 0 0.1161608 0.9932305
vn -0.5925676 -0.7455776 -0.3049225
vn -0.6675338 -0.7077118 -0.1524599
vn -0.7425 -0.6698461 2.572644E-06
vn 0.6452925 -0.7379451 -0.1309066
vn 0.5835382 -0.7687234 -0.2618158
vn 0.7070469 -0.7071667 2.71598E-06
vn 0.6869028 -0.6870209 0.2369956
vn 0.6762943 -0.7166265 0.1184979
vn 0.6656858 -0.7462322 1.981193E-07
vn -0.6955308 -0.7184963 1.907556E-07
vn -0.7054998 -0.681979 0.1336823
vn -0.7154687 -0.6454617 0.2673644
vn 0.002675892 0.2089742 -0.1687861
vn -0.002677817 0.209174 -0.1688723
vn -0.005355635 -0.3958832 -0.9182853
vn -1.283828E-06 0.007355034 -0.4186192
vn 0.005351783 -0.3962829 -0.9181129
vn 0.6852052 -0.6815666 0.1563065
vn 0.7248021 -0.6535152 -0.1428529
vn 0.6560021 -0.6985934 -0.2857071
vn 0.6754708 -0.6872422 0.008968641
vn 0.5768083 -0.7546961 0.3126116
vn -0.7665315 -0.618557 -0.1126281
vn -0.7368969 -0.6445524 0.123044
vn -0.656154 -0.7133746 0.2460866
vn -0.729739 -0.6501629 0.006943436
vn -0.7154231 -0.661384 -0.2252576
vn -0.0008260954 0.0657683 0.06274337
vn 0.0008255813 0.06572345 0.06270775
vn 0.001651163 -0.6217403 0.7832217
vn -3.427267E-07 -0.1634013 0.3029028
vn -0.001652191 -0.6216506 0.7832929

usemtl Heart
f 1/1/1 2/2/1 3/3/1
f 4/8/3 6/9/3 5/10/3
f 12/50/24 8/48/22 7/47/21
f 12/50/24 15/49/23 8/48/22
f 7/47/21 11/51/25 12/50/24
f 14/55/29 7/53/27 9/52/26
f 14/55/29 11/54/28 7/53/27
f 9/52/26 19/56/30 14/55/29
f 16/60/34 17/59/33 10/58/32
f 8/57/31 15/61/35 16/60/34
f 10/58/32 8/57/31 16/60/34
f 18/65/39 19/64/38 9/63/37
f 10/62/36 17/66/40 18/65/39
f 9/63/37 10/62/36 18/65/39
f 3/6/2 2/4/2 4/5/2
f 4/5/2 5/7/2 3/6/2
f 5/13/4 6/11/4 1/12/4
f 1/12/4 3/14/4 5/13/4
f 8/18/5 2/16/5 1/15/5
f 1/15/5 7/17/5 8/18/5
f 7/22/6 1/20/6 6/19/6
f 6/19/6 9/21/6 7/22/6
f 10/26/7 4/24/7 2/23/7
f 2/23/7 8/25/7 10/26/7
f 9/30/8 6/28/8 4/27/8
f 4/27/8 10/29/8 9/30/8
f 14/34/10 13/33/11 12/32/10
f 12/32/10 11/31/9 14/34/10
f 15/36/13 12/35/12 13/38/14
f 13/38/14 16/37/12 15/36/13
f 13/42/16 18/41/17 17/40/16
f 17/40/16 16/39/15 13/42/16
f 19/44/19 18/43/18 13/46/19
f 13/46/19 14/45/20 19/44/19

